<?xml version="1.0" standalone="no"?>
<!DOCTYPE svg PUBLIC "-//W3C//DTD SVG 20010904//EN"
 "http://www.w3.org/TR/2001/REC-SVG-20010904/DTD/svg10.dtd">
<svg version="1.0" xmlns="http://www.w3.org/2000/svg"
 width="205.000000pt" height="205.000000pt" viewBox="0 0 205.000000 205.000000"
 preserveAspectRatio="xMidYMid meet">
<metadata>
Created by potrace 1.11, written by Peter Selinger 2001-2013
</metadata>
<g transform="translate(0.000000,205.000000) scale(0.100000,-0.100000)"
fill="#000000" stroke="none">
<path d="M0 1030 l0 -950 1025 0 1025 0 0 950 0 950 -1025 0 -1025 0 0 -950z
m1092 793 c38 -40 48 -74 48 -161 0 -84 -11 -167 -37 -278 -14 -63 -20 -73
-46 -85 -17 -8 -36 -23 -44 -35 -12 -18 -10 -25 10 -55 25 -38 25 -69 -3 -69
-32 0 -106 297 -117 466 -7 126 0 165 39 209 26 31 36 35 77 35 39 0 52 -5 73
-27z m-601 -331 c70 -45 164 -124 298 -250 118 -111 122 -116 100 -126 -13 -5
-50 -20 -82 -34 l-57 -25 -62 24 c-49 19 -70 35 -105 79 -64 79 -153 256 -166
328 -8 42 12 43 74 4z m1297 -7 c38 -42 46 -91 40 -228 -8 -170 -68 -266 -178
-287 -82 -16 -201 11 -260 60 l-33 27 64 36 c121 67 182 135 159 177 -11 21
-81 46 -158 55 -66 9 -63 14 67 100 105 69 164 94 227 95 36 0 47 -5 72 -35z
m-589 -252 c-78 -74 -90 -81 -107 -60 -16 19 12 114 36 120 9 3 45 5 80 6 l62
1 -71 -67z m323 46 c15 -6 29 -18 32 -26 9 -22 -57 -85 -139 -132 l-76 -44
-67 26 c-37 14 -80 30 -95 34 l-29 9 89 78 88 78 85 -5 c47 -3 98 -11 112 -18z
m-956 -186 c27 -8 65 -28 83 -43 l34 -27 -54 -30 c-193 -110 -286 -240 -261
-365 12 -61 7 -68 -49 -68 -30 0 -43 7 -67 35 -38 42 -46 91 -40 228 12 246
132 338 354 270z m504 13 c0 -3 -4 -8 -10 -11 -5 -3 -10 -1 -10 4 0 6 5 11 10
11 6 0 10 -2 10 -4z m302 -116 c60 -26 118 -100 187 -237 45 -90 76 -181 66
-191 -21 -22 -158 76 -335 240 -180 166 -171 153 -113 172 26 9 59 23 73 31
29 18 57 14 122 -15z m-624 -6 c20 -9 61 -24 91 -33 l53 -16 -123 -108 c-112
-98 -287 -225 -331 -240 -23 -8 -37 12 -44 66 -9 67 29 140 109 212 56 50 180
134 200 135 4 0 24 -7 45 -16z m301 -76 c6 -17 10 -33 8 -35 -8 -7 -63 43 -60
55 9 24 41 13 52 -20z m-106 -23 c-4 -47 -137 -304 -187 -361 -72 -81 -146
-104 -222 -68 -32 15 -94 76 -94 92 0 4 24 20 53 36 78 43 272 191 352 268 75
73 101 81 98 33z m298 -262 c23 -46 32 -80 35 -130 l5 -68 -42 80 c-23 44 -57
122 -76 175 l-34 95 40 -45 c23 -25 55 -73 72 -107z"/>
</g>
</svg>
